<?xml version="1.0" standalone="no"?><!DOCTYPE svg PUBLIC "-//W3C//DTD SVG 1.1//EN" "http://www.w3.org/Graphics/SVG/1.1/DTD/svg11.dtd"><svg class="icon" height="512" viewBox="0 0 1024 1024" version="1.1" xmlns="http://www.w3.org/2000/svg"><path d="M866.764459 39.727263a117.940312 117.940312 0 0 1 117.473517 117.473517v709.588508a117.940312 117.940312 0 0 1-117.473517 117.453654H157.215678A117.940312 117.940312 0 0 1 39.732229 866.789288V157.230575A117.940312 117.940312 0 0 1 157.215678 39.727263h709.548781m0-39.727263H157.215678C70.739358 0 0.004966 70.764187 0.004966 157.230575v709.558713c0 86.466388 70.734392 157.180916 157.210712 157.180917h709.548781c86.466388 0 157.20078-70.744324 157.20078-157.20078V157.230575C1023.975171 70.764187 953.230847 0 866.764459 0z" fill="" /><path d="M704.458726 499.570333l67.536347 0 0 10.924997-67.536347 0 0-10.924997Z" fill="" /><path d="M772.918732 108.256792H251.061405c-78.540799 0-142.799647 64.258848-142.799647 142.799647v521.887122C108.261758 851.48436 172.520606 915.743208 251.061405 915.743208h521.857327C851.459531 915.743208 915.718379 851.48436 915.718379 772.943561V251.086234c0-78.540799-64.26878-142.829442-142.799647-142.829442zM512 771.781539c-82.076525 0-151.360872-66.960302-151.360872-149.553282 0-133.662376 121.992493-173.290321 145.858646-365.639797 0.715091-5.790249 10.249634-5.790249 10.924998 0 23.836358 192.349476 145.858646 231.967489 145.858646 365.639797 0.049659 82.59298-69.234688 149.553282-151.281418 149.553282z" fill="" /><path d="M543.245493 736.612979a69.820665 69.820665 0 0 0 69.840528-69.671687 15.53336 15.53336 0 0 0-31.06672 0 38.734081 38.734081 0 0 1-38.734081 38.644695 15.513496 15.513496 0 1 0 0 31.026992z" fill="" /></svg>